<svg width="50" height="50" viewBox="0 0 50 50" fill="none" xmlns="http://www.w3.org/2000/svg">
<path d="M37.5 14.917C37.375 14.8962 37.2292 14.8962 37.1042 14.917C34.2292 14.8128 31.9375 12.4587 31.9375 9.542C31.9375 6.56283 34.3333 4.16699 37.3125 4.16699C40.2917 4.16699 42.6875 6.58366 42.6875 9.542C42.6667 12.4587 40.375 14.8128 37.5 14.917Z" stroke="white" stroke-width="1.5" stroke-linecap="round" stroke-linejoin="round"/>
<path d="M35.3542 30.084C38.2084 30.5632 41.3542 30.0632 43.5625 28.584C46.5 26.6257 46.5 23.4173 43.5625 21.459C41.3334 19.9798 38.1459 19.4798 35.2917 19.9798" stroke="white" stroke-width="1.5" stroke-linecap="round" stroke-linejoin="round"/>
<path d="M12.4375 14.917C12.5625 14.8962 12.7083 14.8962 12.8333 14.917C15.7083 14.8128 18 12.4587 18 9.542C18 6.56283 15.6042 4.16699 12.625 4.16699C9.64584 4.16699 7.25 6.58366 7.25 9.542C7.27083 12.4587 9.5625 14.8128 12.4375 14.917Z" stroke="white" stroke-width="1.5" stroke-linecap="round" stroke-linejoin="round"/>
<path d="M14.5833 30.084C11.7292 30.5632 8.58333 30.0632 6.375 28.584C3.4375 26.6257 3.4375 23.4173 6.375 21.459C8.60417 19.9798 11.7917 19.4798 14.6458 19.9798" stroke="white" stroke-width="1.5" stroke-linecap="round" stroke-linejoin="round"/>
<path d="M25 30.4795C24.875 30.4587 24.7292 30.4587 24.6042 30.4795C21.7292 30.3753 19.4375 28.0212 19.4375 25.1045C19.4375 22.1253 21.8333 19.7295 24.8125 19.7295C27.7917 19.7295 30.1875 22.1462 30.1875 25.1045C30.1667 28.0212 27.875 30.3962 25 30.4795Z" stroke="white" stroke-width="1.5" stroke-linecap="round" stroke-linejoin="round"/>
<path d="M18.9375 37.042C16 39.0003 16 42.2087 18.9375 44.167C22.2708 46.3962 27.7292 46.3962 31.0625 44.167C34 42.2087 34 39.0003 31.0625 37.042C27.75 34.8337 22.2708 34.8337 18.9375 37.042Z" stroke="white" stroke-width="1.5" stroke-linecap="round" stroke-linejoin="round"/>
</svg>
