<svg width="46" height="51" viewBox="0 0 46 51" fill="none" xmlns="http://www.w3.org/2000/svg">
<path d="M15.3333 46.75H30.6666C38.3716 46.75 39.7516 43.3288 40.1541 39.1638L41.5916 22.1638C42.1091 16.9788 40.7675 12.75 32.5833 12.75H13.4166C5.23245 12.75 3.89079 16.9788 4.40829 22.1638L5.84579 39.1638C6.24829 43.3288 7.62829 46.75 15.3333 46.75Z" stroke="white" stroke-width="1.5" stroke-miterlimit="10" stroke-linecap="round" stroke-linejoin="round"/>
<path d="M15.3334 12.75V11.05C15.3334 7.28875 15.3334 4.25 21.4667 4.25H24.5334C30.6667 4.25 30.6667 7.28875 30.6667 11.05V12.75" stroke="white" stroke-width="1.5" stroke-miterlimit="10" stroke-linecap="round" stroke-linejoin="round"/>
<path d="M26.8333 27.625V29.75C26.8333 29.7712 26.8333 29.7713 26.8333 29.7925C26.8333 32.1088 26.8141 34 23 34C19.205 34 19.1666 32.13 19.1666 29.8137V27.625C19.1666 25.5 19.1666 25.5 21.0833 25.5H24.9166C26.8333 25.5 26.8333 25.5 26.8333 27.625Z" stroke="white" stroke-width="1.5" stroke-miterlimit="10" stroke-linecap="round" stroke-linejoin="round"/>
<path d="M41.4959 23.375C37.0684 26.945 32.0084 29.07 26.8334 29.7925" stroke="white" stroke-width="1.5" stroke-miterlimit="10" stroke-linecap="round" stroke-linejoin="round"/>
<path d="M5.02161 23.9487C9.33411 27.2212 14.2024 29.1975 19.1666 29.8137" stroke="white" stroke-width="1.5" stroke-miterlimit="10" stroke-linecap="round" stroke-linejoin="round"/>
</svg>
