<svg width="42" height="34" viewBox="0 0 42 34" fill="none" xmlns="http://www.w3.org/2000/svg">
<rect x="0.5" y="0.5" width="40.1765" height="25.7143" rx="1.5" fill="#1D1819" stroke="white"/>
<rect x="5.3443" y="5.35742" width="8.68859" height="9.92857" rx="1.5" fill="#1D1819" stroke="white"/>
<rect x="16.244" y="5.35742" width="8.68859" height="9.92857" rx="1.5" fill="#1D1819" stroke="white"/>
<rect x="28.3547" y="5.35742" width="8.68859" height="13.5714" rx="1.5" fill="#1D1819" stroke="white"/>
<path d="M9.6889 22.3574C12.7556 22.3576 15.2435 24.8506 15.2436 27.9287C15.2436 31.0069 12.7557 33.4998 9.6889 33.5C6.62201 33.5 4.13324 31.007 4.13324 27.9287C4.13332 24.8505 6.62205 22.3574 9.6889 22.3574Z" fill="#1D1819" stroke="white"/>
<path d="M31.4882 22.3574C34.5549 22.3576 37.0428 24.8506 37.0429 27.9287C37.0429 31.0069 34.555 33.4998 31.4882 33.5C28.4213 33.5 25.9326 31.007 25.9326 27.9287C25.9326 24.8505 28.4214 22.3574 31.4882 22.3574Z" fill="#1D1819" stroke="white"/>
</svg>
