<svg width="53" height="54" viewBox="0 0 53 54" fill="none" xmlns="http://www.w3.org/2000/svg">
<path d="M19.1504 32.2421C19.1504 35.1446 21.3366 37.4846 24.0529 37.4846H29.5958C31.9587 37.4846 33.88 35.4371 33.88 32.9171C33.88 30.1721 32.7096 29.2046 30.965 28.5746L22.0654 25.4246C20.3208 24.7946 19.1504 23.8271 19.1504 21.0821C19.1504 18.5621 21.0716 16.5146 23.4346 16.5146H28.9775C31.6937 16.5146 33.88 18.8546 33.88 21.7571" stroke="white" stroke-width="1.5" stroke-linecap="round" stroke-linejoin="round"/>
<path d="M26.5 13.5V40.5" stroke="white" stroke-width="1.5" stroke-linecap="round" stroke-linejoin="round"/>
<path d="M26.5 49.5C38.6962 49.5 48.5833 39.4264 48.5833 27C48.5833 14.5736 38.6962 4.5 26.5 4.5C14.3037 4.5 4.41663 14.5736 4.41663 27C4.41663 39.4264 14.3037 49.5 26.5 49.5Z" stroke="white" stroke-width="1.5" stroke-linecap="round" stroke-linejoin="round"/>
</svg>
