<svg width="42" height="43" viewBox="0 0 42 43" fill="none" xmlns="http://www.w3.org/2000/svg">
<path d="M16.03 19.4756C15.855 19.4577 15.645 19.4577 15.4525 19.4756C11.2875 19.3322 7.97998 15.8385 7.97998 11.5385C7.97998 7.14891 11.445 3.5835 15.75 3.5835C20.0375 3.5835 23.52 7.14891 23.52 11.5385C23.5025 15.8385 20.195 19.3322 16.03 19.4756Z" stroke="white" stroke-width="1.5" stroke-linecap="round" stroke-linejoin="round"/>
<path d="M28.7175 7.1665C32.1125 7.1665 34.8425 9.97942 34.8425 13.4373C34.8425 16.8236 32.2175 19.5828 28.945 19.7082C28.805 19.6903 28.6475 19.6903 28.49 19.7082" stroke="white" stroke-width="1.5" stroke-linecap="round" stroke-linejoin="round"/>
<path d="M7.28001 26.0865C3.04501 28.989 3.04501 33.719 7.28001 36.6036C12.0925 39.9003 19.985 39.9003 24.7975 36.6036C29.0325 33.7011 29.0325 28.9711 24.7975 26.0865C20.0025 22.8078 12.11 22.8078 7.28001 26.0865Z" stroke="white" stroke-width="1.5" stroke-linecap="round" stroke-linejoin="round"/>
<path d="M32.095 35.8335C33.355 35.5647 34.545 35.0452 35.525 34.2747C38.255 32.1785 38.255 28.7206 35.525 26.6243C34.5625 25.8718 33.39 25.3702 32.1475 25.0835" stroke="white" stroke-width="1.5" stroke-linecap="round" stroke-linejoin="round"/>
</svg>
