<svg width="47" height="46" viewBox="0 0 47 46" fill="none" xmlns="http://www.w3.org/2000/svg">
<path d="M5.89453 21.5049V30.1107C5.89453 38.7165 9.41953 42.1665 18.2124 42.1665H28.7679C37.5608 42.1665 41.0858 38.7165 41.0858 30.1107V21.5049" stroke="white" stroke-width="1.5" stroke-linecap="round" stroke-linejoin="round"/>
<path d="M23.5 22.9997C27.0838 22.9997 29.7275 20.1438 29.375 16.6363L28.0825 3.83301H18.9371L17.625 16.6363C17.2725 20.1438 19.9163 22.9997 23.5 22.9997Z" stroke="white" stroke-width="1.5" stroke-linecap="round" stroke-linejoin="round"/>
<path d="M35.8571 22.9997C39.8129 22.9997 42.7112 19.8563 42.3196 16.0038L41.7712 10.733C41.0662 5.74967 39.1079 3.83301 33.9771 3.83301H28.0042L29.375 17.2688C29.7079 20.4313 32.6258 22.9997 35.8571 22.9997Z" stroke="white" stroke-width="1.5" stroke-linecap="round" stroke-linejoin="round"/>
<path d="M11.045 22.9997C14.2762 22.9997 17.1941 20.4313 17.5075 17.2688L17.9383 13.033L18.8783 3.83301H12.9054C7.77454 3.83301 5.8162 5.74967 5.1112 10.733L4.58245 16.0038C4.19079 19.8563 7.08912 22.9997 11.045 22.9997Z" stroke="white" stroke-width="1.5" stroke-linecap="round" stroke-linejoin="round"/>
<path d="M23.5 32.583C20.2295 32.583 18.6041 34.1738 18.6041 37.3747V42.1663H28.3958V37.3747C28.3958 34.1738 26.7704 32.583 23.5 32.583Z" stroke="white" stroke-width="1.5" stroke-linecap="round" stroke-linejoin="round"/>
</svg>
